<svg width="18" height="18" viewBox="0 0 18 18" fill="none" xmlns="http://www.w3.org/2000/svg">
<g clip-path="url(#clip0_3_12)">
<path d="M17.6918 3.21954C17.528 1.68448 16.3157 0.471863 14.7805 0.308167C10.9306 -0.102722 7.06943 -0.102722 3.21968 0.308167C1.68448 0.472 0.472 1.68448 0.308167 3.21954C-0.102722 7.06929 -0.102722 10.9306 0.308167 14.7803C0.472 16.3155 1.68448 17.528 3.21954 17.6918C7.06929 18.1027 10.9306 18.1027 14.7805 17.6918C16.3157 17.528 17.528 16.3155 17.6918 14.7803C18.1027 10.9306 18.1027 7.06943 17.6918 3.21954Z" fill="url(#paint0_radial_3_12)"/>
<path d="M16.7128 3.87063C16.5675 2.50846 15.4917 1.43249 14.1294 1.28706C10.7132 0.922585 7.28682 0.922585 3.87062 1.28706C2.50845 1.43249 1.43248 2.50846 1.28705 3.87063C0.922577 7.28683 0.922577 10.7132 1.28705 14.1292C1.43248 15.4916 2.50845 16.5675 3.87062 16.7128C7.28682 17.0774 10.7132 17.0774 14.1292 16.7128C15.4915 16.5675 16.5675 15.4916 16.7128 14.1292C17.0774 10.7132 17.0774 7.28683 16.7128 3.87063Z" fill="url(#paint1_linear_3_12)"/>
<path d="M0.269714 14.4072C0.282074 14.5316 0.294846 14.656 0.308167 14.7805C0.472 16.3155 1.68448 17.528 3.21968 17.6918C7.06943 18.1027 10.9307 18.1027 14.7805 17.6918C16.3157 17.528 17.528 16.3155 17.6918 14.7805C17.7052 14.656 17.7179 14.5316 17.7304 14.4072H0.269714Z" fill="url(#paint2_linear_3_12)"/>
<path d="M17.6918 14.7805C17.9127 12.7119 18.0146 10.64 17.9981 8.56844L13.8837 4.45406C13.3697 3.86725 12.6189 3.501 11.7367 3.46927C9.92244 3.40391 8.10242 3.4072 6.28789 3.46955C4.78084 3.52146 3.72697 4.5344 3.45671 6.02318C3.40906 6.28603 3.38049 6.55231 3.343 6.81708V11.1817C3.36374 11.3231 3.39423 11.4639 3.4037 11.6062C3.46413 12.5117 3.83629 13.2873 4.43216 13.8121L8.61905 17.9988C10.6738 18.0132 12.7286 17.9111 14.7805 17.692C16.3157 17.5282 17.528 16.3157 17.6918 14.7805Z" fill="url(#paint3_linear_3_12)"/>
<path d="M17.6918 14.7805C17.5281 16.3154 16.3154 17.5281 14.7805 17.6918C12.7289 17.9107 10.6736 18.013 8.61919 17.9986L4.43861 13.8181C4.92325 14.2423 5.55496 14.5006 6.28802 14.5282C8.10214 14.5963 9.92258 14.5945 11.7367 14.5291C13.3775 14.4698 14.5648 13.2554 14.6161 11.6146C14.6707 9.87245 14.6707 8.12576 14.6161 6.38361C14.5927 5.62665 14.327 4.9606 13.8864 4.4566L17.9982 8.56837C18.0144 10.6397 17.9125 12.7119 17.6918 14.7805Z" fill="url(#paint4_linear_3_12)"/>
<path d="M11.1239 7.05089C10.5969 6.47699 9.84059 6.11691 9 6.11691C7.40781 6.11691 6.11691 7.40781 6.11691 9C6.11691 9.84059 6.47699 10.5969 7.05089 11.1239L13.7214 17.7944C14.0744 17.7637 14.4275 17.7295 14.7803 17.6918C16.3155 17.528 17.528 16.3155 17.6918 14.7803C17.7295 14.4275 17.7637 14.0744 17.7944 13.7214L11.1239 7.05089Z" fill="url(#paint5_linear_3_12)"/>
<path d="M17.9651 10.9389L12.5966 5.57062C12.4714 5.40623 12.2741 5.29953 12.0515 5.29953C11.6727 5.29953 11.3655 5.6066 11.3655 5.98549C11.3655 6.2081 11.4722 6.40544 11.6366 6.53069L17.8691 12.7634C17.9114 12.1554 17.9434 11.5472 17.9651 10.9389Z" fill="url(#paint6_linear_3_12)"/>
<path d="M3.343 6.81708C3.38049 6.55231 3.40906 6.28603 3.45671 6.02318C3.72684 4.5344 4.78084 3.52146 6.28789 3.46955C8.10242 3.4072 9.92244 3.40391 11.7367 3.46927C13.377 3.52833 14.5648 4.74286 14.6161 6.38367C14.6706 8.12597 14.6706 9.87252 14.6161 11.6148C14.5648 13.2556 13.3774 14.47 11.7368 14.5292C9.92258 14.5947 8.10214 14.5964 6.28802 14.5282C4.64749 14.4666 3.51343 13.2493 3.4037 11.606C3.39423 11.4639 3.36374 11.323 3.343 11.1815C3.343 9.72667 3.343 8.27181 3.343 6.81708ZM9.00151 13.5568C9.8318 13.5568 10.6629 13.5816 11.4921 13.551C12.7922 13.5028 13.5919 12.7269 13.6222 11.428C13.6599 9.80962 13.6599 8.189 13.6222 6.57044C13.5919 5.27186 12.7917 4.47782 11.4921 4.45022C9.84265 4.41533 8.19141 4.41561 6.54195 4.45022C5.25229 4.47727 4.45029 5.25524 4.41527 6.53954C4.37077 8.17843 4.37077 9.8202 4.41527 11.4591C4.45029 12.7432 5.25229 13.5032 6.54208 13.551C7.36084 13.5815 8.18166 13.5568 9.00151 13.5568Z" fill="url(#paint7_linear_3_12)"/>
<path d="M3.343 6.81708C3.38049 6.55231 3.40906 6.28603 3.45671 6.02318C3.72684 4.5344 4.78084 3.52146 6.28789 3.46955C8.10242 3.4072 9.92244 3.40391 11.7367 3.46927C13.377 3.52833 14.5648 4.74286 14.6161 6.38367C14.6706 8.12597 14.6706 9.87252 14.6161 11.6148C14.5648 13.2556 13.3774 14.47 11.7368 14.5292C9.92258 14.5947 8.10214 14.5964 6.28802 14.5282C4.64749 14.4666 3.51343 13.2493 3.4037 11.606C3.39423 11.4639 3.36374 11.323 3.343 11.1815C3.343 9.72667 3.343 8.27181 3.343 6.81708ZM9.00151 13.5568C9.8318 13.5568 10.6629 13.5816 11.4921 13.551C12.7922 13.5028 13.5919 12.7269 13.6222 11.428C13.6599 9.80962 13.6599 8.189 13.6222 6.57044C13.5919 5.27186 12.7917 4.47782 11.4921 4.45022C9.84265 4.41533 8.19141 4.41561 6.54195 4.45022C5.25229 4.47727 4.45029 5.25524 4.41527 6.53954C4.37077 8.17843 4.37077 9.8202 4.41527 11.4591C4.45029 12.7432 5.25229 13.5032 6.54208 13.551C7.36084 13.5815 8.18166 13.5568 9.00151 13.5568Z" fill="white"/>
<path d="M9 6.11707C7.40781 6.11707 6.11691 7.40782 6.11691 9.00001C6.11691 10.5923 7.40781 11.8831 9 11.8831C10.5923 11.8831 11.8831 10.5923 11.8831 9.00001C11.8831 7.40782 10.5923 6.11707 9 6.11707ZM9 10.8905C7.95589 10.8905 7.10953 10.0441 7.10953 9.00001C7.10953 7.9559 7.95589 7.10954 9 7.10954C10.0441 7.10954 10.8905 7.9559 10.8905 9.00001C10.8905 10.0441 10.0441 10.8905 9 10.8905Z" fill="white"/>
<path d="M12.7373 5.98549C12.7373 6.36424 12.4302 6.67131 12.0515 6.67131C11.6727 6.67131 11.3655 6.36424 11.3655 5.98549C11.3655 5.6066 11.6727 5.29953 12.0515 5.29953C12.4302 5.29953 12.7373 5.6066 12.7373 5.98549Z" fill="white"/>
</g>
<defs>
<radialGradient id="paint0_radial_3_12" cx="0" cy="0" r="1" gradientUnits="userSpaceOnUse" gradientTransform="translate(3.6899 15.7306) scale(19.8508)">
<stop stop-color="#FAE100"/>
<stop offset="0.0544" stop-color="#FADC04"/>
<stop offset="0.1167" stop-color="#FBCE0E"/>
<stop offset="0.1829" stop-color="#FCB720"/>
<stop offset="0.2514" stop-color="#FE9838"/>
<stop offset="0.3054" stop-color="#FF7950"/>
<stop offset="0.4922" stop-color="#FF1C74"/>
<stop offset="1" stop-color="#6C1CD1"/>
</radialGradient>
<linearGradient id="paint1_linear_3_12" x1="6.90373" y1="7.82086" x2="-23.5904" y2="-9.33209" gradientUnits="userSpaceOnUse">
<stop stop-color="#A1B5D8" stop-opacity="0"/>
<stop offset="0.3094" stop-color="#90A2BD" stop-opacity="0.309804"/>
<stop offset="0.7554" stop-color="#7C8B9C" stop-opacity="0.756863"/>
<stop offset="1" stop-color="#748290"/>
</linearGradient>
<linearGradient id="paint2_linear_3_12" x1="9.00001" y1="15.8894" x2="9.00001" y2="18.6952" gradientUnits="userSpaceOnUse">
<stop stop-color="#FAE100" stop-opacity="0"/>
<stop offset="0.3068" stop-color="#FCA800" stop-opacity="0.305882"/>
<stop offset="0.6275" stop-color="#FE7300" stop-opacity="0.627451"/>
<stop offset="0.8685" stop-color="#FF5200" stop-opacity="0.866667"/>
<stop offset="1" stop-color="#FF4500"/>
</linearGradient>
<linearGradient id="paint3_linear_3_12" x1="7.97598" y1="7.95072" x2="3.52127" y2="3.49601" gradientUnits="userSpaceOnUse">
<stop stop-color="#833AB4" stop-opacity="0"/>
<stop offset="1" stop-color="#833AB4"/>
</linearGradient>
<linearGradient id="paint4_linear_3_12" x1="12.3363" y1="16.4632" x2="10.1129" y2="5.9814" gradientUnits="userSpaceOnUse">
<stop stop-color="#833AB4" stop-opacity="0"/>
<stop offset="1" stop-color="#833AB4"/>
</linearGradient>
<linearGradient id="paint5_linear_3_12" x1="13.1824" y1="13.1824" x2="4.25183" y2="4.25183" gradientUnits="userSpaceOnUse">
<stop stop-color="#833AB4" stop-opacity="0"/>
<stop offset="1" stop-color="#833AB4"/>
</linearGradient>
<linearGradient id="paint6_linear_3_12" x1="13.8448" y1="7.77878" x2="10.8916" y2="4.82563" gradientUnits="userSpaceOnUse">
<stop stop-color="#833AB4" stop-opacity="0"/>
<stop offset="1" stop-color="#833AB4"/>
</linearGradient>
<linearGradient id="paint7_linear_3_12" x1="12.5739" y1="5.45116" x2="5.29251" y2="12.7326" gradientUnits="userSpaceOnUse">
<stop stop-color="#833AB4"/>
<stop offset="0.0922" stop-color="#9C3495"/>
<stop offset="0.2927" stop-color="#DC2546"/>
<stop offset="0.392" stop-color="#FD1D1D"/>
<stop offset="0.5589" stop-color="#FC6831"/>
<stop offset="0.6887" stop-color="#FC9B40"/>
<stop offset="0.7521" stop-color="#FCAF45"/>
<stop offset="0.7806" stop-color="#FDB750"/>
<stop offset="0.8656" stop-color="#FECB6A"/>
<stop offset="0.9415" stop-color="#FFD87A"/>
<stop offset="1" stop-color="#FFDC80"/>
</linearGradient>
<clipPath id="clip0_3_12">
<rect width="18" height="18" fill="white"/>
</clipPath>
</defs>
</svg>
