<svg width="18" height="18" viewBox="0 0 18 18" fill="none" xmlns="http://www.w3.org/2000/svg">
<path d="M9 18C13.9706 18 18 13.9706 18 9C18 4.02944 13.9706 0 9 0C4.02944 0 0 4.02944 0 9C0 13.9706 4.02944 18 9 18Z" fill="#039BE5"/>
<path d="M4.11825 8.80497L12.7958 5.45922C13.1985 5.31372 13.5503 5.55747 13.4198 6.16647L13.4205 6.16572L11.943 13.1265C11.8335 13.62 11.5403 13.74 11.13 13.5075L8.88001 11.8492L7.79475 12.8947C7.67475 13.0147 7.5735 13.116 7.341 13.116L7.50075 10.8262L11.6708 7.05897C11.8523 6.89922 11.6303 6.80922 11.391 6.96822L6.23775 10.2127L4.01625 9.51972C3.534 9.36672 3.5235 9.03747 4.11825 8.80497Z" fill="white"/>
</svg>
